<svg width="120" height="120" viewBox="0 0 120 120" fill="none" xmlns="http://www.w3.org/2000/svg">
<rect width="120" height="120" rx="60" fill="#5865F2"/>
<path d="M89.1095 32.471C83.7557 29.9387 78.0144 28.073 72.0116 27.0045C71.9023 26.9839 71.7931 27.0354 71.7368 27.1385C70.9984 28.4922 70.1806 30.2583 69.6078 31.6464C63.1514 30.65 56.7281 30.65 50.4041 31.6464C49.8313 30.2274 48.9837 28.4922 48.242 27.1385C48.1857 27.0388 48.0765 26.9873 47.9672 27.0045C41.9677 28.0696 36.2265 29.9353 30.8693 32.471C30.8229 32.4917 30.7831 32.526 30.7568 32.5707C19.8669 49.3414 16.8837 65.6999 18.3471 81.8556C18.3538 81.9347 18.3968 82.0103 18.4564 82.0583C25.6412 87.4974 32.601 90.7993 39.4315 92.988C39.5408 93.0224 39.6566 92.9811 39.7262 92.8883C41.3419 90.6138 42.7822 88.2156 44.0172 85.6935C44.09 85.5458 44.0205 85.3706 43.8715 85.3121C41.587 84.4188 39.4116 83.3296 37.3191 82.0927C37.1535 81.9931 37.1403 81.7491 37.2926 81.6322C37.7329 81.2921 38.1734 80.9382 38.5938 80.5808C38.6699 80.5156 38.7759 80.5018 38.8654 80.543C52.6125 87.013 67.4954 87.013 81.0803 80.543C81.1698 80.4984 81.2758 80.5122 81.3552 80.5774C81.7758 80.9348 82.2161 81.2921 82.6598 81.6322C82.812 81.7491 82.8021 81.9931 82.6366 82.0927C80.544 83.3536 78.3687 84.4188 76.0808 85.3087C75.9318 85.3671 75.8656 85.5458 75.9385 85.6935C77.1999 88.212 78.6402 90.6103 80.2261 92.8849C80.2924 92.9811 80.4115 93.0224 80.5208 92.988C87.3845 90.7993 94.3442 87.4974 101.529 82.0583C101.592 82.0103 101.632 81.9381 101.638 81.8591C103.39 63.1813 98.7047 46.9569 89.2187 32.5741C89.1956 32.526 89.1559 32.4917 89.1095 32.471ZM46.0701 72.0185C41.9312 72.0185 38.521 68.1016 38.521 63.2913C38.521 58.481 41.8651 54.5641 46.0701 54.5641C50.3081 54.5641 53.6853 58.5154 53.6191 63.2913C53.6191 68.1016 50.2749 72.0185 46.0701 72.0185ZM73.9816 72.0185C69.8429 72.0185 66.4326 68.1016 66.4326 63.2913C66.4326 58.481 69.7767 54.5641 73.9816 54.5641C78.2197 54.5641 81.5969 58.5154 81.5307 63.2913C81.5307 68.1016 78.2197 72.0185 73.9816 72.0185Z" fill="white"/>
</svg>
