<svg width="120" height="120" viewBox="0 0 120 120" fill="none" xmlns="http://www.w3.org/2000/svg">
<rect width="120" height="120" rx="60" fill="white"/>
<path fill-rule="evenodd" clip-rule="evenodd" d="M59.9858 21C50.2369 21.0051 40.8078 24.4579 33.3843 30.7411C25.9608 37.0243 21.0272 45.7282 19.4655 55.2964C17.9037 64.8646 19.8158 74.6732 24.8598 82.9682C29.9038 91.2633 37.7508 97.504 46.9977 100.574C49.0377 100.953 49.8061 99.6886 49.8061 98.6135C49.8061 97.5385 49.7653 94.4215 49.7517 91.0138C38.3276 93.4817 35.9136 86.1929 35.9136 86.1929C34.0504 81.46 31.3576 80.2159 31.3576 80.2159C27.6312 77.6871 31.6364 77.7345 31.6364 77.7345C35.7641 78.0252 37.9333 81.9468 37.9333 81.9468C41.5917 88.1875 47.5417 86.3823 49.8809 85.3275C50.2481 82.6838 51.3157 80.8853 52.4921 79.8643C43.3665 78.8366 33.7784 75.3342 33.7784 59.6884C33.7219 55.6308 35.2362 51.7068 38.0081 48.7283C37.5865 47.7006 36.1788 43.5491 38.4092 37.9101C38.4092 37.9101 41.8569 36.8148 49.7041 42.0954C56.435 40.2652 63.5365 40.2652 70.2674 42.0954C78.1078 36.8148 81.5486 37.9101 81.5486 37.9101C83.7858 43.5356 82.3782 47.6871 81.9566 48.7283C84.7373 51.7073 86.2548 55.6381 86.193 59.702C86.193 75.3815 76.5846 78.8366 67.4454 79.844C68.9142 81.1152 70.2266 83.5966 70.2266 87.41C70.2266 92.8731 70.179 97.268 70.179 98.6135C70.179 99.7021 70.9202 100.973 73.001 100.574C82.2489 97.5036 90.0967 91.2618 95.1406 82.9654C100.185 74.6689 102.096 64.8588 100.532 55.2898C98.9686 45.7207 94.0325 37.0167 86.6066 30.7346C79.1807 24.4524 69.7493 21.0019 59.9993 21H59.9858Z" fill="black"/>
<path d="M34.4712 79.6276C34.3828 79.8305 34.0564 79.8913 33.7912 79.7494C33.526 79.6074 33.3288 79.3437 33.424 79.1341C33.5192 78.9245 33.8388 78.8704 34.104 79.0124C34.3692 79.1544 34.5732 79.4248 34.4712 79.6276Z" fill="white"/>
<path d="M36.1369 81.4735C35.9961 81.544 35.835 81.5637 35.6811 81.5292C35.5273 81.4946 35.3904 81.408 35.2937 81.2841C35.0285 81.0002 34.9741 80.608 35.1781 80.4322C35.3821 80.2564 35.7493 80.3375 36.0145 80.6215C36.2797 80.9055 36.3409 81.2977 36.1369 81.4735Z" fill="white"/>
<path d="M37.7557 83.8196C37.5041 83.9954 37.0757 83.8196 36.8377 83.468C36.7719 83.4049 36.7195 83.3293 36.6838 83.2457C36.648 83.162 36.6296 83.0721 36.6296 82.9812C36.6296 82.8903 36.648 82.8003 36.6838 82.7167C36.7195 82.633 36.7719 82.5574 36.8377 82.4944C37.0893 82.3253 37.5177 82.4944 37.7557 82.8392C37.9937 83.184 38.0005 83.6438 37.7557 83.8196V83.8196Z" fill="white"/>
<path d="M39.9521 86.0915C39.7277 86.3417 39.2721 86.274 38.8981 85.936C38.5241 85.5979 38.4357 85.1381 38.6601 84.8947C38.8845 84.6513 39.3401 84.7189 39.7277 85.0502C40.1153 85.3816 40.1901 85.8481 39.9521 86.0915V86.0915Z" fill="white"/>
<path d="M43.0322 87.4166C42.9302 87.7344 42.4678 87.8764 42.0054 87.7412C41.543 87.606 41.237 87.2273 41.3254 86.9028C41.4138 86.5782 41.883 86.4295 42.3522 86.5782C42.8214 86.727 43.1206 87.0853 43.0322 87.4166Z" fill="white"/>
<path d="M46.3918 87.6465C46.3918 87.9778 46.011 88.2618 45.5214 88.2686C45.0318 88.2753 44.6306 88.0049 44.6306 87.6736C44.6306 87.3423 45.0114 87.0583 45.501 87.0515C45.9906 87.0448 46.3918 87.3085 46.3918 87.6465Z" fill="white"/>
<path d="M49.5196 87.126C49.5808 87.4573 49.2408 87.8022 48.7512 87.8833C48.2616 87.9644 47.8332 87.7683 47.772 87.4438C47.7108 87.1193 48.0644 86.7677 48.5404 86.6798C49.0164 86.5919 49.4584 86.7947 49.5196 87.126Z" fill="white"/>
</svg>
