<svg width="120" height="120" viewBox="0 0 120 120" fill="none" xmlns="http://www.w3.org/2000/svg">
<rect width="120" height="120" rx="60" fill="url(#paint0_linear_18_866)"/>
<path d="M60.0095 30.4891C69.6289 30.4891 70.7581 30.532 74.5601 30.7035C78.0763 30.8608 79.9773 31.4468 81.2494 31.9471C82.936 32.6046 84.1366 33.3764 85.3944 34.6342C86.6522 35.892 87.4384 37.0926 88.0816 38.7792C88.5675 40.0513 89.1679 41.9524 89.3251 45.4685C89.4966 49.2705 89.5395 50.3997 89.5395 60.0191C89.5395 69.6384 89.4966 70.7676 89.3251 74.5696C89.1679 78.0858 88.5818 79.9868 88.0816 81.2589C87.4241 82.9455 86.6522 84.1461 85.3944 85.4039C84.1366 86.6617 82.936 87.4478 81.2494 88.091C79.9773 88.577 78.0763 89.1773 74.5601 89.3346C70.7581 89.5061 69.6289 89.549 60.0095 89.549C50.3902 89.549 49.261 89.5061 45.459 89.3346C41.9428 89.1773 40.0418 88.5913 38.7697 88.091C37.0831 87.4336 35.8825 86.6617 34.6247 85.4039C33.3669 84.1461 32.5807 82.9455 31.9375 81.2589C31.4516 79.9868 30.8512 78.0858 30.694 74.5696C30.5225 70.7676 30.4796 69.6384 30.4796 60.0191C30.4796 50.3997 30.5225 49.2705 30.694 45.4685C30.8512 41.9524 31.4373 40.0513 31.9375 38.7792C32.595 37.0926 33.3669 35.892 34.6247 34.6342C35.8825 33.3764 37.0831 32.5903 38.7697 31.9471C40.0418 31.4611 41.9428 30.8608 45.459 30.7035C49.261 30.5177 50.4045 30.4891 60.0095 30.4891ZM60.0095 24C50.2329 24 49.0037 24.0429 45.1588 24.2144C41.3282 24.3859 38.7126 25.0005 36.4256 25.8867C34.0529 26.8015 32.0519 28.045 30.0508 30.0461C28.0498 32.0471 26.8205 34.0625 25.8915 36.4209C25.0053 38.7078 24.3907 41.3235 24.2192 45.1683C24.0476 48.9989 24.0048 50.2282 24.0048 60.0048C24.0048 69.7814 24.0476 71.0106 24.2192 74.8555C24.3907 78.6861 25.0053 81.3017 25.8915 83.603C26.8062 85.9756 28.0498 87.9767 30.0508 89.9778C32.0519 91.9788 34.0672 93.208 36.4256 94.1371C38.7126 95.0233 41.3282 95.6379 45.1731 95.8094C49.018 95.9809 50.2329 96.0238 60.0238 96.0238C69.8147 96.0238 71.0297 95.9809 74.8746 95.8094C78.7052 95.6379 81.3208 95.0233 83.6221 94.1371C85.9947 93.2223 87.9958 91.9788 89.9969 89.9778C91.9979 87.9767 93.2271 85.9613 94.1562 83.603C95.0424 81.316 95.657 78.7004 95.8285 74.8555C96 71.0106 96.0429 69.7957 96.0429 60.0048C96.0429 50.2139 96 48.9989 95.8285 45.154C95.657 41.3235 95.0424 38.7078 94.1562 36.4066C93.2414 34.0339 91.9979 32.0328 89.9969 30.0318C87.9958 28.0307 85.9804 26.8015 83.6221 25.8724C81.3351 24.9862 78.7195 24.3716 74.8746 24.2001C71.0154 24.0429 69.7862 24 60.0095 24Z" fill="white"/>
<path d="M60.0095 41.5235C49.8041 41.5235 41.514 49.7993 41.514 60.019C41.514 70.2387 49.7898 78.5145 60.0095 78.5145C70.2292 78.5145 78.505 70.2387 78.505 60.019C78.505 49.7993 70.2292 41.5235 60.0095 41.5235ZM60.0095 72.0111C53.3775 72.0111 48.0032 66.6368 48.0032 60.0047C48.0032 53.3726 53.3775 47.9984 60.0095 47.9984C66.6416 47.9984 72.0159 53.3726 72.0159 60.0047C72.0159 66.6368 66.6416 72.0111 60.0095 72.0111Z" fill="white"/>
<path d="M79.234 45.0969C81.618 45.0969 83.5506 43.1643 83.5506 40.7803C83.5506 38.3963 81.618 36.4637 79.234 36.4637C76.85 36.4637 74.9174 38.3963 74.9174 40.7803C74.9174 43.1643 76.85 45.0969 79.234 45.0969Z" fill="white"/>
<defs>
<linearGradient id="paint0_linear_18_866" x1="60" y1="0" x2="60" y2="120" gradientUnits="userSpaceOnUse">
<stop stop-color="#F9CE34"/>
<stop offset="0.52" stop-color="#EE2A7B"/>
<stop offset="1" stop-color="#6228D7"/>
</linearGradient>
</defs>
</svg>
