<svg width="120" height="120" viewBox="0 0 120 120" fill="none" xmlns="http://www.w3.org/2000/svg">
<rect width="120" height="120" rx="60" fill="#1D9BF0"/>
<path d="M49.02 91.65C75.63 91.65 90.18 69.6 90.18 50.49C90.18 49.86 90.18 49.23 90.15 48.63C92.97 46.59 95.43 44.04 97.38 41.13C94.8 42.27 92.01 43.05 89.07 43.41C92.07 41.61 94.35 38.79 95.43 35.4C92.64 37.05 89.55 38.25 86.25 38.91C83.61 36.09 79.86 34.35 75.69 34.35C67.71 34.35 61.23 40.83 61.23 48.81C61.23 49.95 61.35 51.06 61.62 52.11C49.59 51.51 38.94 45.75 31.8 36.99C30.57 39.12 29.85 41.61 29.85 44.25C29.85 49.26 32.4 53.7 36.3 56.28C33.93 56.22 31.71 55.56 29.76 54.48C29.76 54.54 29.76 54.6 29.76 54.66C29.76 61.68 34.74 67.5 41.37 68.85C40.17 69.18 38.88 69.36 37.56 69.36C36.63 69.36 35.73 69.27 34.83 69.09C36.66 74.85 42 79.02 48.33 79.14C43.38 83.01 37.14 85.32 30.36 85.32C29.19 85.32 28.05 85.26 26.91 85.11C33.24 89.25 40.86 91.65 49.02 91.65Z" fill="white"/>
</svg>
